# xmcd CD database file
# Copyright (C) 1997 Ti Kan
#
# Track frame offsets:
#  150
#  24555
#  46132
#  65775
#  82275
#  101257
#  125090
#  147292
#  168057
#  191422
#
# Disc length: 2763 seconds
#
# Revision: 1
# Processed by: cddbd v1.4b41PL1 Copyright (c) Steve Scherf et al.
# Submitted via: CDWizzard Release:4.35
#
DISCID=870ac90a
DTITLE=Roberto Carlos - ROBERTO CARLOS Em Portugues '88
DYEAR=1900
DGENRE=
TTITLE0=To Chutando Lata
TTITLE1=Menina
TTITLE2=Aguia Dourada
TTITLE3=Coisas Do Coracao
TTITLE4=Cancao Do Sonho Bom
TTITLE5=O Careta
TTITLE6=Antigamente Era Assim
TTITLE7=Ingenuo e Sonhador
TTITLE8=Aventuras
TTITLE9=Todo Mundo Esta Falando
EXTD=
EXTT0=
EXTT1=
EXTT2=
EXTT3=
EXTT4=
EXTT5=
EXTT6=
EXTT7=
EXTT8=
EXTT9=
PLAYORDER=
